<svg width="680" height="500" viewBox="0 0 680 500" fill="none" xmlns="http://www.w3.org/2000/svg">
<path d="M202.778 131.445C206.796 123.409 210.935 117.211 211.447 108.351C212.164 108.466 212.806 108.542 213.222 108.611C217.956 109.4 222.485 108.599 227.111 107.5C231.596 106.435 234.79 103.093 239.222 102C249.357 99.501 261.039 99.9303 271.389 100.611C280.463 101.208 289.73 104.387 298.389 107C306.367 109.407 312.648 112.229 319.028 117.75C325.024 122.939 329.785 128.498 333.25 135.695C335.264 139.877 339.095 143.28 340.694 147.722C341.976 151.283 340.869 156.634 340.25 160.222C340.02 161.558 339.704 165.154 338.222 166C337.145 166.616 336.733 168.077 335.972 169.028C334.778 170.521 333.437 171.93 332.028 173.222C331.053 174.116 330.077 175.585 328.722 175.972C326.809 176.519 323.959 176 322 176H312.5C296.036 176 280.065 182.465 264.5 187C253.949 190.074 243.244 192.723 232.611 195.5C225.132 197.453 217.513 197.328 210 195.5C204.02 194.046 198.938 191.931 193.5 189.111C191.839 188.25 187.123 185.709 187 183.5C186.828 180.399 186.842 177.379 187.75 174.472C189.253 169.664 189.738 164.493 192.25 160.028C193.841 157.199 195 153.277 195 150C195 142.963 199.813 137.374 202.778 131.445Z" fill="#7F7F7F"/>
<path d="M211.5 106.5C211.5 116.375 207.069 122.861 202.778 131.445C199.813 137.374 195 142.963 195 150C195 153.277 193.841 157.199 192.25 160.028C189.738 164.493 189.253 169.664 187.75 174.472C186.842 177.379 186.828 180.399 187 183.5C187.123 185.709 191.839 188.25 193.5 189.111C198.938 191.931 204.02 194.046 210 195.5C217.513 197.328 225.132 197.453 232.611 195.5C243.244 192.723 253.949 190.074 264.5 187C280.065 182.465 296.036 176 312.5 176C315.667 176 318.833 176 322 176C323.959 176 326.809 176.519 328.722 175.972C330.077 175.585 331.053 174.116 332.028 173.222C333.437 171.93 334.778 170.521 335.972 169.028C336.733 168.077 337.145 166.616 338.222 166C339.704 165.154 340.02 161.558 340.25 160.222C340.869 156.634 341.976 151.283 340.694 147.722C339.095 143.28 335.264 139.877 333.25 135.695C329.785 128.498 325.024 122.939 319.028 117.75C312.648 112.229 306.367 109.407 298.389 107C289.73 104.387 280.463 101.208 271.389 100.611C261.039 99.9303 249.357 99.501 239.222 102C234.79 103.093 231.596 106.435 227.111 107.5C222.485 108.599 217.956 109.4 213.222 108.611C211.835 108.38 207.945 108.074 207.111 106.5C206.558 105.455 211 102.634 211 107.5" stroke="#7F7F7F" stroke-width="3" stroke-linecap="round"/>
<rect x="22" y="59" width="98" height="61" fill="#7F7F7F"/>
<path d="M599.217 2.0347C589.884 6.16803 588.55 20.0347 596.55 31.6347C601.084 38.4347 610.684 50.4347 613.217 52.568C615.884 54.8347 626.417 72.3014 628.95 78.568C636.55 97.9014 639.217 115.768 636.417 129.501C633.884 141.635 618.817 160.568 600.95 173.901C589.75 182.301 587.884 183.235 577.484 186.568C563.484 191.101 552.684 192.301 534.95 191.501C511.217 190.435 470.95 185.235 450.95 180.701C446.15 179.635 431.484 176.301 418.284 173.368C386.284 166.168 377.75 164.301 363.617 161.901L351.617 159.768L348.017 147.501C333.884 99.768 322.284 68.968 310.417 47.6347C301.217 31.1014 297.617 28.3014 294.817 35.5014C294.15 37.5014 291.75 41.9013 289.617 45.2347C287.484 48.568 282.817 56.968 279.217 63.9014L272.55 76.568L255.484 77.5014C246.017 77.9014 236.684 78.7014 234.817 79.1013C231.75 79.6347 230.95 79.1013 228.15 72.8347C224.284 64.568 210.95 44.0347 207.75 41.368C206.417 40.3013 205.084 40.0347 204.284 40.7014C199.217 45.768 186.284 115.635 180.95 165.901C177.35 201.235 177.084 225.368 180.15 268.168C181.75 290.035 183.884 313.635 184.95 320.701L186.95 333.635L178.284 351.101C163.217 381.235 152.284 413.501 152.284 427.235C152.284 436.301 156.95 448.035 161.484 450.435C165.35 452.568 173.084 452.168 175.484 449.768C178.017 447.368 178.284 439.635 176.017 431.368C174.55 425.635 174.684 424.968 179.617 415.368C184.284 406.301 196.017 389.768 197.084 390.835C197.217 391.101 199.084 398.568 200.95 407.235C202.817 416.035 206.55 431.635 209.217 441.901C215.617 466.835 215.75 467.901 212.417 474.301C208.55 481.768 208.684 490.701 212.55 495.101C219.084 502.568 229.617 499.768 234.95 489.235C238.417 482.435 239.75 471.901 241.75 435.635L243.35 406.835L254.15 405.901C276.15 404.035 312.15 398.568 332.284 393.901C365.884 386.168 375.75 384.168 399.617 380.435C412.017 378.568 423.75 376.435 425.484 375.635C429.084 374.301 462.95 371.501 463.884 372.435C464.417 372.968 462.55 380.301 457.484 396.568C456.817 398.835 454.284 401.901 451.617 403.635C443.884 408.568 442.55 417.501 448.55 423.768C451.484 426.968 460.284 427.501 465.484 424.835C469.35 422.968 480.817 404.835 495.35 377.901C499.617 370.035 499.75 369.901 505.617 369.901H511.484L514.55 377.901C520.284 392.568 524.684 413.101 525.35 428.035C525.884 440.835 525.617 443.101 522.417 451.901C519.75 459.235 519.084 463.101 519.617 466.835C520.684 473.235 525.884 477.501 531.484 476.968C535.217 476.568 536.284 475.368 542.15 463.901C555.084 439.101 560.55 421.101 564.284 392.568C565.084 385.901 566.684 376.301 567.617 371.235C569.35 362.835 573.084 336.968 576.284 310.568C577.084 305.101 578.817 292.168 580.284 281.901C581.75 271.635 583.75 256.168 584.817 247.368C585.884 238.701 587.217 231.101 587.884 230.568C588.417 230.035 593.884 227.368 600.017 224.701C616.817 217.368 628.817 208.835 644.284 193.368C656.417 181.101 659.35 177.368 665.617 165.235C678.417 140.835 679.35 136.968 679.484 113.901C679.617 94.0347 678.017 83.2347 674.15 75.9014C673.217 74.0347 670.55 68.0347 668.284 62.568C666.017 57.1013 661.35 47.768 658.017 42.0347C650.684 29.6347 630.817 8.168 622.017 3.23468C615.084 -0.631989 606.284 -1.03198 599.217 2.0347ZM294.95 132.568C294.95 137.368 293.617 139.901 290.817 139.901C285.884 139.901 283.884 130.701 287.884 126.168C290.15 123.768 290.284 123.768 292.55 126.568C293.884 128.168 294.95 130.968 294.95 132.568ZM238.95 133.101C241.217 138.835 239.484 145.501 235.884 144.968C233.75 144.701 232.817 143.235 232.017 139.501C230.15 130.435 235.75 125.368 238.95 133.101ZM270.95 145.768C270.95 146.035 270.017 148.035 268.817 150.301C267.75 152.701 266.95 156.435 267.217 158.835C267.484 162.568 268.284 163.368 271.484 163.901C273.617 164.301 275.617 165.235 275.884 166.035C276.55 167.901 272.017 169.235 264.684 169.235C258.55 169.235 256.95 167.101 262.017 165.901C264.55 165.235 264.95 164.435 264.55 159.768C264.15 155.901 263.084 153.901 260.817 152.301C256.15 149.368 256.684 145.501 262.017 144.168C265.617 143.101 270.95 144.168 270.95 145.768ZM327.484 153.101C328.284 154.435 311.217 157.235 302.684 157.235C293.884 157.235 298.284 154.835 309.617 153.501C323.35 151.768 326.684 151.768 327.484 153.101ZM329.484 165.101C332.684 167.101 325.484 168.301 315.217 167.368C310.284 166.968 304.817 166.568 302.95 166.568C299.884 166.435 299.884 166.301 302.284 165.235C305.884 163.635 327.084 163.635 329.484 165.101ZM222.95 166.568C222.95 167.235 222.684 167.901 222.284 167.901C221.884 167.901 215.484 169.635 208.017 171.901C195.084 175.635 191.484 176.035 194.417 173.368C196.55 171.368 212.417 166.835 222.017 165.368C222.55 165.235 222.95 165.768 222.95 166.568ZM225.617 172.701C225.617 173.901 200.017 185.368 198.417 184.835C196.817 184.301 204.684 179.768 215.617 175.101C222.417 172.035 225.617 171.368 225.617 172.701Z" fill="#262A2F"/>
<path d="M56.1505 30.3013C46.2838 31.9013 27.6171 42.1679 18.2838 51.2346C4.81713 64.3013 0.283793 75.6346 0.0171266 96.9679C-0.24954 114.835 2.55046 123.235 11.7505 133.101C23.6171 146.035 34.8171 150.435 63.6171 153.901C82.0171 156.168 93.3505 156.301 101.084 154.568C105.217 153.635 109.35 154.035 119.084 156.035C148.017 162.301 151.884 160.968 140.284 148.301L133.35 140.701L134.15 131.368C134.684 126.168 135.084 112.568 135.217 101.235C135.35 84.5679 134.95 79.1013 132.95 73.2346C129.617 62.8346 126.017 56.0346 121.084 51.1013C116.017 45.7679 96.1505 33.6346 89.6171 31.9013C83.0838 30.1679 63.4838 29.2346 56.1505 30.3013ZM92.2838 76.1679C106.15 85.6346 100.417 112.968 84.9505 111.635C81.3505 111.368 79.0838 110.168 77.2171 107.635C74.4171 103.901 72.6838 92.9679 74.1505 87.2346C75.2171 83.2346 83.7505 73.2346 86.2838 73.2346C87.0838 73.2346 89.8838 74.5679 92.2838 76.1679ZM61.0838 77.5013C62.5505 82.0346 63.8838 105.235 62.9505 109.768C62.5505 111.901 61.6171 113.901 60.8171 114.168C58.1505 115.101 51.3505 108.035 45.6171 98.4346C42.5505 93.2346 39.7505 89.368 39.3505 89.6346C39.0838 90.0346 39.4838 95.2346 40.4171 101.235C42.0171 112.435 41.2171 115.768 37.2171 114.168C33.7505 112.835 31.8838 77.2346 35.3505 77.2346C36.2838 77.2346 40.4171 81.6346 44.6838 86.8346C48.8171 92.1679 53.0838 97.7679 54.2838 99.2346C56.2838 101.768 56.4171 101.235 55.6171 91.768C54.6838 80.7013 55.6171 74.5679 58.2838 74.5679C59.3505 74.5679 60.5505 75.9013 61.0838 77.5013ZM113.35 107.101C114.15 110.835 111.617 112.435 109.084 109.901C107.35 108.035 107.217 107.235 108.417 105.768C110.417 103.368 112.817 104.035 113.35 107.101Z" fill="#262A2F"/>
<path d="M80.9505 82.9012C78.4171 87.8346 78.4171 94.9012 80.8171 100.901C82.8171 105.435 84.8171 106.501 87.7505 104.501C93.8838 100.235 95.8838 86.5012 90.9505 81.5679C87.0838 77.7012 83.3505 78.2346 80.9505 82.9012Z" fill="#262A2F"/>
</svg>
